<?xml version="1.0" encoding="UTF-8" standalone="no"?>
<svg
   xmlns:svg="http://www.w3.org/2000/svg"
   xmlns="http://www.w3.org/2000/svg"
   height="40" width="165">
   <defs>
    <linearGradient id="g1" x1="0%" y1="0%" x2="100%" y2="0%">
      <stop offset="0%" style="stop-color:rgb(128,100,100);stop-opacity:1" />
	  <stop offset="20%" style="stop-color:rgb(123,123,123);stop-opacity:1" />
      <stop offset="100%" style="stop-color:rgb(200,200,200);stop-opacity:1" />
    </linearGradient>
  </defs>
   <path style="stroke:rgba(0,0,0,0);stroke-width:0;fill:url(#g1)"  d="M0 0 L145 0 L165 40 L35 40 L20 10 L5 10" />
  <path style="stroke:rgb(255,255,255);stroke-width:1;fill:rgba(0,0,0,0)"  d="M55 10 L55 10 L50 0 L0 0 L5 10 L20 10 L35 40 L50 40 L35 10 L55 10 L70 10 L75 20 L50 20 L75 20 L80 30 L55 30 L80 30 L85 40 L50 40 L35 10 L55 10 L50 0 L100 0 L105 10 L85 10 L100 40 L85 40 L110 40 L103 30 L110 40 L120 40 L108 25 L112 25 L105 10 L100 0 L115 0 L120 10 L100 10 L120 10 L120 10 L135 40 L120 40 L105 10 L120 10 L115 0 L145 0 L152 15 L132 15 L152 15 L165 40 L135 40 L130 30 L150 30 L130 30 L135 40 L50 40 L35 10 Z" />
  SVG not supported
</svg>